<?xml version="1.0" encoding="UTF-8"?>
<svg id="Layer_1" data-name="Layer 1" xmlns="http://www.w3.org/2000/svg" viewBox="0 0 180 252">
  <defs>
    <style>
      .cls-1 {
        stroke-width: 0px;
      }
    </style>
  </defs>
  <path class="cls-1" d="m172.57,0H7.43C3.33,0,0,3.33,0,7.43v237.15c0,4.1,3.33,7.43,7.43,7.43h165.15c4.1,0,7.43-3.33,7.43-7.43V7.43c0-4.1-3.33-7.43-7.43-7.43Zm5.43,243.35c0,3.51-2.84,6.35-6.35,6.35H8.35c-3.51,0-6.35-2.84-6.35-6.35v-112.71c0-3.51,2.84-6.35,6.35-6.35h163.29c3.51,0,6.35,2.84,6.35,6.35v112.71Zm0-127.48c0,3.38-2.74,6.12-6.12,6.12H8.12c-3.38,0-6.12-2.74-6.12-6.12V8.12c0-3.38,2.74-6.12,6.12-6.12h163.75c3.38,0,6.12,2.74,6.12,6.12v107.75Z"/>
  <polygon class="cls-1" points="119 14 61 14 51 1 129 1 119 14"/>
</svg>